<?xml version="1.0" encoding="UTF-8" standalone="no"?>
<svg
   xmlns:dc="http://purl.org/dc/elements/1.1/"
   xmlns:cc="http://creativecommons.org/ns#"
   xmlns:rdf="http://www.w3.org/1999/02/22-rdf-syntax-ns#"
   xmlns:svg="http://www.w3.org/2000/svg"
   xmlns="http://www.w3.org/2000/svg"
   xmlns:sodipodi="http://sodipodi.sourceforge.net/DTD/sodipodi-0.dtd"
   xmlns:inkscape="http://www.inkscape.org/namespaces/inkscape"
   version="1.1"
   id="svg2"
   xml:space="preserve"
   viewBox="0 0 400 400"
   sodipodi:docname="FairwayQRCode.eps"><metadata
     id="metadata8"><rdf:RDF><cc:Work
         rdf:about=""><dc:format>image/svg+xml</dc:format><dc:type
           rdf:resource="http://purl.org/dc/dcmitype/StillImage" /></cc:Work></rdf:RDF></metadata><defs
     id="defs6" /><sodipodi:namedview
     pagecolor="#ffffff"
     bordercolor="#666666"
     borderopacity="1"
     objecttolerance="10"
     gridtolerance="10"
     guidetolerance="10"
     inkscape:pageopacity="0"
     inkscape:pageshadow="2"
     inkscape:window-width="640"
     inkscape:window-height="480"
     id="namedview4" /><rect 
     x="15" y="15" width="370" height="370"
     style="fill:#ffffff;fill-opacity:0.75;fill-rule:nonzero;stroke:none"
     id="rect01" /><g
     id="g10"
     inkscape:groupmode="layer"
     inkscape:label="ink_ext_XXXXXX"
     transform="matrix(1.3333333,0,0,-1.3333333,0,400)"><g
       id="g12"
       transform="scale(0.1)"><path
         d="m 290.32,2370.96 v -338.71 h 677.418 v 677.42 H 629.031 290.32 Z m 580.645,0 V 2129.03 H 387.098 v 483.87 h 241.933 241.934 v -241.94"
         style="fill:#000000;fill-opacity:1;fill-rule:nonzero;stroke:none"
         id="path14" /><path
         d="m 1258.06,2661.29 v -48.39 h -96.77 v -96.77 h -48.39 -48.38 v -48.39 -48.39 h 48.38 48.39 v -96.78 -96.77 h 48.39 48.38 v -96.77 -96.78 h 48.39 48.39 v -48.38 -48.39 h 48.38 48.39 v 48.39 48.38 h 48.39 48.38 v -96.77 -96.77 h 48.39 48.39 v 48.38 48.39 h 48.39 48.38 v -48.39 -48.38 h 48.39 48.39 v -96.78 -96.77 h 96.77 96.77 v -48.39 -48.39 h -96.77 -96.77 v -145.16 -145.16 h 96.77 96.77 v -48.38 -48.39 h -96.77 -96.77 v -96.77 -96.782 h -48.39 -48.39 v 145.162 145.16 h -48.38 -48.39 v 48.39 48.39 h -48.39 -48.39 V 1161.29 967.738 H 1500 1451.61 v -48.386 -48.387 h 48.39 48.38 v -96.774 -96.773 h 48.39 48.39 v -96.773 -96.774 h -48.39 -48.39 v 48.387 48.387 H 1500 1451.61 v -96.774 -96.773 h 48.39 48.38 V 338.711 290.32 h 193.55 193.55 v 145.164 145.161 h 48.39 48.38 v 48.386 48.387 h 48.39 48.39 v -48.387 -48.386 h 48.38 48.39 v -96.774 -96.773 h -48.39 -48.38 v 48.386 48.387 h -48.39 -48.39 v -48.387 -48.386 h 48.39 48.39 V 338.711 290.32 h 48.38 48.39 v 48.391 48.387 h 96.77 96.78 v 48.386 48.387 h -48.39 -48.39 v 48.387 48.387 h 96.78 96.78 v 48.386 48.387 h 48.38 48.39 v 96.773 96.774 h 48.39 48.38 v 96.773 96.782 h -96.77 -96.77 V 870.965 677.418 h -48.39 -48.39 v 241.934 241.938 h -48.39 -48.39 v 48.39 48.38 h -48.38 -48.39 v 48.39 48.39 h -48.39 -48.38 v 48.38 48.39 h 48.38 48.39 v 48.39 48.38 h -48.39 -48.38 v 48.39 48.39 h 48.38 48.39 v 48.39 48.38 h -48.39 -48.38 v 96.78 96.77 h -96.78 -96.77 v 193.55 193.54 h -96.77 -96.78 v 48.39 48.39 h 48.39 48.39 v 145.16 145.16 h -96.78 -96.77 v -48.38 -48.39 h 48.39 48.38 v -96.77 -96.78 h -48.38 -48.39 v -48.39 -48.39 h -96.78 -96.77 v -48.38 -48.39 h -96.77 -96.78 v 96.77 96.78 h -48.38 -48.39 v 48.39 48.39 h 48.39 48.38 v 48.38 48.39 h 48.39 48.39 v 48.39 48.38 h -48.39 -48.39 z m 387.1,-532.26 v -96.78 h -96.78 v 96.78 H 1500 1451.61 v -48.39 -48.39 h -48.39 -48.38 v 48.39 48.39 h 48.38 48.39 v 48.38 48.39 h 96.77 96.78 z m 193.55,-96.78 v -96.77 h -96.78 v 193.55 h 48.39 48.39 z m 193.54,-241.93 v -48.39 h -96.77 v 96.78 h 48.39 48.38 z m 0,-387.1 v -48.38 h -96.77 v 96.77 h 48.39 48.38 z m 193.55,-193.54 v -48.39 h -96.77 v 96.77 h 48.38 48.39 z m 0,-290.328 V 774.191 h -290.32 v 290.329 h 145.16 145.16 z m -580.64,0 v -48.387 h -96.78 v 96.773 h 48.39 48.39 z m 193.55,-145.161 v -96.773 h -96.78 v 193.547 h 48.39 48.39 z m 0,-338.707 v -48.386 h -193.55 v 96.773 h 96.77 96.78 v -48.387"
         style="fill:#000000;fill-opacity:1;fill-rule:nonzero;stroke:none"
         id="path16" /><path
         d="m 2032.25,2370.96 v -338.71 h 677.42 v 677.42 h -338.71 -338.71 z m 580.65,0 v -241.93 h -483.87 v 483.87 h 241.93 241.94 v -241.94"
         style="fill:#000000;fill-opacity:1;fill-rule:nonzero;stroke:none"
         id="path18" /><path
         d="m 1354.84,2467.74 v -48.39 h 96.77 v 96.78 h -48.39 -48.38 v -48.39"
         style="fill:#000000;fill-opacity:1;fill-rule:nonzero;stroke:none"
         id="path20" /><path
         d="m 1064.52,2032.25 v -96.77 H 677.418 v -96.77 h -48.387 -48.386 v 48.38 48.39 H 435.484 290.32 v -48.39 -48.38 h 48.391 48.387 V 1693.55 1548.38 H 338.711 290.32 v -96.77 -96.77 h 48.391 48.387 v -48.39 -48.39 H 338.711 290.32 v -48.38 -48.39 h 48.391 48.387 v -48.39 -48.38 h 48.386 48.387 v 48.38 48.39 h 48.387 48.387 v -48.39 -48.38 h 48.386 48.387 v 48.38 48.39 h -48.387 -48.386 v 48.39 48.38 h 96.773 96.773 v -96.77 -96.77 h 96.774 96.773 v 48.38 48.39 h 48.392 48.39 V 919.352 677.418 h 48.38 48.39 v 96.773 96.774 h 48.39 48.38 v -96.774 -96.773 h 48.39 48.39 v 145.16 145.16 h -48.39 -48.39 v 48.392 48.39 h -48.38 -48.39 v 48.38 48.39 h -48.39 -48.38 v 48.39 48.38 h -48.39 -48.392 v 48.39 48.39 h 48.392 48.39 v 96.77 96.77 H 919.352 774.191 V 1500 1451.61 h -48.386 -48.387 v -48.39 -48.38 h -48.387 -48.386 v 96.77 96.77 h -48.387 -48.387 v 96.78 96.77 h 48.387 48.387 v -48.38 -48.39 h 193.546 193.547 v 48.39 48.38 h -48.386 -48.387 v 48.39 48.39 h 96.773 96.782 v -96.78 -96.77 h 48.38 48.39 v -48.39 -48.39 h 48.39 48.38 V 1500 1451.61 h -48.38 -48.39 v -48.39 -48.38 h 48.39 48.38 v -48.39 -48.39 h 48.39 48.39 V 1500 1741.93 h -48.39 -48.39 v 48.39 48.39 h -48.38 -48.39 v 145.16 145.16 h -48.39 -48.38 z M 774.191,1790.32 v -48.39 h -96.773 v 96.78 h 48.387 48.386 z m 483.869,-96.77 v -48.39 h -96.77 v 96.77 h 48.39 48.38 z M 483.871,1451.61 v -96.77 h -96.773 v 193.54 h 48.386 48.387 z m 483.867,-48.39 v -48.38 H 774.191 v 96.77 h 96.774 96.773 z M 483.871,1209.68 v -48.39 h -96.773 v 96.77 h 48.386 48.387 z m 483.867,0 v -48.39 h -96.773 v 96.77 h 48.387 48.386 v -48.38"
         style="fill:#000000;fill-opacity:1;fill-rule:nonzero;stroke:none"
         id="path22" /><path
         d="m 2419.35,1887.09 v -48.38 h 96.78 v 96.77 h -48.39 -48.39 v -48.39"
         style="fill:#000000;fill-opacity:1;fill-rule:nonzero;stroke:none"
         id="path24" /><path
         d="m 2612.9,1790.32 v -48.39 h -193.55 v -96.77 h 48.39 48.39 v -96.78 -96.77 h 48.38 48.39 v -48.39 -48.38 h -96.77 -96.78 v 96.77 96.77 h -48.39 -48.39 v -96.77 -96.77 h 48.39 48.39 v -48.39 -48.39 h 48.39 48.39 v -48.38 -48.39 h 48.38 48.39 v 48.39 48.38 h 48.39 48.38 v 145.16 145.16 h -48.38 -48.39 v 48.39 48.39 h 48.39 48.38 v 96.77 96.78 h -48.38 -48.39 v -48.39"
         style="fill:#000000;fill-opacity:1;fill-rule:nonzero;stroke:none"
         id="path26" /><path
         d="m 1451.61,1693.55 v -48.39 h 96.77 v -193.55 h 96.78 96.77 v 96.77 96.78 h -96.77 -96.78 v 48.39 48.38 H 1500 1451.61 v -48.38"
         style="fill:#000000;fill-opacity:1;fill-rule:nonzero;stroke:none"
         id="path28" /><path
         d="M 290.32,629.031 V 290.32 H 967.738 V 967.738 H 629.031 290.32 Z m 580.645,0 V 387.098 H 387.098 V 870.965 H 629.031 870.965 V 629.031"
         style="fill:#000000;fill-opacity:1;fill-rule:nonzero;stroke:none"
         id="path30" /><path
         d="M 1064.52,435.484 V 290.32 h 290.32 v 96.778 h -96.78 -96.77 v 96.773 96.774 h -48.39 -48.38 V 435.484"
         style="fill:#000000;fill-opacity:1;fill-rule:nonzero;stroke:none"
         id="path32" /><path
         d="m 1258.06,532.258 v -48.387 h 96.78 v 96.774 h -48.39 -48.39 v -48.387"
         style="fill:#000000;fill-opacity:1;fill-rule:nonzero;stroke:none"
         id="path34" /><path
         d="m 2612.9,532.258 v -48.387 h -96.77 V 290.32 h 96.77 96.77 v 48.391 48.387 h -48.38 -48.39 v 48.386 48.387 h 48.39 48.38 v 48.387 48.387 h -48.38 -48.39 v -48.387"
         style="fill:#000000;fill-opacity:1;fill-rule:nonzero;stroke:none"
         id="path36" /><path
         d="M 483.871,2370.96 V 2225.8 h 290.32 v 290.33 h -145.16 -145.16 v -145.17"
         style="fill:#000000;fill-opacity:1;fill-rule:nonzero;stroke:none"
         id="path38" /><path
         d="m 2032.25,919.352 v -48.387 h 96.78 v 96.773 h -48.39 -48.39 v -48.386"
         style="fill:#000000;fill-opacity:1;fill-rule:nonzero;stroke:none"
         id="path40" /><path
         d="M 2225.8,2370.96 V 2225.8 h 290.33 v 290.33 H 2370.96 2225.8 v -145.17"
         style="fill:#000000;fill-opacity:1;fill-rule:nonzero;stroke:none"
         id="path42" /><path
         d="m 483.871,629.031 v -145.16 h 290.32 v 290.32 h -145.16 -145.16 v -145.16"
         style="fill:#000000;fill-opacity:1;fill-rule:nonzero;stroke:none"
         id="path44" /></g></g></svg>
