<?xml version="1.0" encoding="UTF-8" standalone="no"?>
<svg
   xmlns:dc="http://purl.org/dc/elements/1.1/"
   xmlns:cc="http://creativecommons.org/ns#"
   xmlns:rdf="http://www.w3.org/1999/02/22-rdf-syntax-ns#"
   xmlns:svg="http://www.w3.org/2000/svg"
   xmlns="http://www.w3.org/2000/svg"
   xmlns:sodipodi="http://sodipodi.sourceforge.net/DTD/sodipodi-0.dtd"
   xmlns:inkscape="http://www.inkscape.org/namespaces/inkscape"
   version="1.1"
   id="svg2"
   xml:space="preserve"
   width="400"
   height="400"
   viewBox="0 0 400 400"
   sodipodi:docname="FairwayQRCode.eps"><metadata
     id="metadata8"><rdf:RDF><cc:Work
         rdf:about=""><dc:format>image/svg+xml</dc:format><dc:type
           rdf:resource="http://purl.org/dc/dcmitype/StillImage" /></cc:Work></rdf:RDF></metadata><defs
     id="defs6" /><sodipodi:namedview
     pagecolor="#ffffff"
     bordercolor="#666666"
     borderopacity="1"
     objecttolerance="10"
     gridtolerance="10"
     guidetolerance="10"
     inkscape:pageopacity="0"
     inkscape:pageshadow="2"
     inkscape:window-width="640"
     inkscape:window-height="480"
     id="namedview4" /><g
     id="g10"
     inkscape:groupmode="layer"
     inkscape:label="ink_ext_XXXXXX"
     transform="matrix(1.3333333,0,0,-1.3333333,0,400)"><g
       id="g12"
       transform="scale(0.1)"><path
         d="m 257.145,2442.87 v -300 h 600.003 v 600.01 h -300.003 -300 z m 514.289,0 V 2228.59 H 342.859 v 428.57 h 214.286 214.289 v -214.29"
         style="fill:#000000;fill-opacity:1;fill-rule:nonzero;stroke:none"
         id="path14" /><path
         d="m 942.863,2700.02 v -42.86 h 85.717 v -85.71 h 42.85 42.86 v -42.86 -42.86 h 42.86 42.86 v 85.72 85.71 h 85.71 85.72 v 42.86 42.86 h -85.72 -85.71 v -42.86 -42.86 h -85.72 -85.71 v 42.86 42.86 h -42.861 -42.856 v -42.86"
         style="fill:#000000;fill-opacity:1;fill-rule:nonzero;stroke:none"
         id="path16" /><path
         d="m 1542.87,2700.02 v -42.86 h 85.71 v -85.71 h -42.86 -42.85 v -42.86 -42.86 h 42.85 42.86 v -42.86 -42.85 h -85.71 -85.72 v -42.86 -42.86 h 42.86 42.86 v -42.86 -42.85 h -42.86 -42.86 v -42.86 -42.86 h -42.86 -42.85 v 85.72 85.71 h -42.86 -42.86 v 42.86 42.86 h 42.86 42.86 v 85.71 85.72 h -42.86 -42.86 v -85.72 -85.71 h -42.86 -42.85 v -42.86 -42.86 h -42.86 -42.86 v 42.86 42.86 h -42.86 -42.85 v -42.86 -42.86 h 42.85 42.86 v -128.57 -128.57 h -42.86 -42.85 v 85.71 85.72 h -42.861 -42.856 v -85.72 -85.71 h 42.856 42.861 v -42.86 -42.86 h -85.717 -85.715 v 42.86 42.86 h -42.859 -42.855 v -42.86 -42.86 h -42.86 -42.855 v 42.86 42.86 h -85.715 -85.715 v -42.86 -42.86 H 471.43 428.574 v 42.86 42.86 h -85.715 -85.714 v -42.86 -42.86 H 300 342.859 v -42.86 -42.85 H 300 257.145 v -42.86 -42.86 H 300 342.859 v 42.86 42.86 h 42.856 42.859 v -85.72 -85.71 h -42.859 -42.856 v -85.72 -85.71 H 300 257.145 v -128.58 -128.57 h 85.714 85.715 v -42.86 -42.85 h 42.856 42.859 v -42.86 -42.86 H 471.43 428.574 v -42.86 -42.85 h 85.715 85.715 v 42.85 42.86 h 42.855 42.86 v -85.71 -85.717 h 85.715 85.714 v 42.856 42.861 h 42.856 42.859 v -85.717 -85.715 h 42.856 42.861 v -42.859 -42.855 h 42.85 42.86 v 85.714 85.715 h 42.86 42.86 v 42.856 42.861 h -42.86 -42.86 v 85.71 85.72 h 42.86 42.86 v -42.86 -42.86 h 42.85 42.86 v -85.71 -85.717 h 85.72 85.71 V 814.289 685.719 h -42.86 -42.85 v -42.86 -42.855 h -42.86 -42.86 v -42.859 -42.856 h 42.86 42.86 v 42.856 42.859 h 85.71 85.72 v -42.859 -42.856 h -42.86 -42.86 V 471.43 428.574 h -85.71 -85.72 v -42.859 -42.856 h -42.86 -42.85 V 300 257.145 h 85.71 85.72 V 300 342.859 h 85.71 85.72 V 300 257.145 h 85.71 85.72 v 85.714 85.715 h -42.86 -42.86 v 128.571 128.574 h -42.86 -42.85 v 42.855 42.86 h 42.85 42.86 v 42.855 42.859 h 42.86 42.86 v 42.856 42.859 h 85.71 85.72 v -42.859 -42.856 h -42.86 -42.86 v -42.859 -42.855 h -42.86 -42.85 v -42.86 -42.855 h 42.85 42.86 v -42.86 -42.855 h 128.57 128.58 v -42.859 -42.856 h -42.86 -42.86 V 471.43 428.574 h 42.86 42.86 V 385.715 342.859 H 1928.58 1800.01 V 300 257.145 h 171.43 171.43 V 300 342.859 h 42.86 42.86 V 300 257.145 h 128.57 128.57 V 300 342.859 h 42.86 42.86 v 42.856 42.859 h 42.85 42.86 v -42.859 -42.856 h 42.86 42.86 v 171.43 171.43 h -85.72 -85.71 v -42.86 -42.855 h 42.85 42.86 v -42.859 -42.856 h -85.71 -85.72 V 471.43 428.574 h -42.86 -42.85 v 42.856 42.859 h -42.86 -42.86 v 42.856 42.859 h 85.72 85.71 v 42.855 42.86 h -42.86 -42.85 v 42.855 42.86 h 42.85 42.86 v 85.714 85.715 h 85.72 85.71 v 42.856 42.861 h -42.86 -42.85 v 42.85 42.86 h -42.86 -42.86 v 42.86 42.86 h 85.72 85.71 v -42.86 -42.86 h 42.86 42.86 v 42.86 42.86 h -42.86 -42.86 v 42.85 42.86 h -85.71 -85.72 v 42.86 42.86 h 42.86 42.86 v 85.71 85.72 h 42.85 42.86 v -85.72 -85.71 h 42.86 42.86 v 214.28 214.29 h -42.86 -42.86 v -85.71 -85.72 H 2485.73 2314.3 v 42.86 42.86 h 85.72 85.71 v 42.85 42.86 h 42.86 42.86 v 42.86 42.86 h 42.85 42.86 v 42.85 42.86 h 42.86 42.86 v 42.86 42.86 h -42.86 -42.86 v -42.86 -42.86 h -85.71 -85.72 v -85.71 -85.72 h -128.57 -128.57 v -42.86 -42.85 h -42.86 -42.86 v -128.58 -128.57 h -42.86 -42.85 v -42.86 -42.85 h -42.86 -42.86 v 85.71 85.72 h -85.71 -85.72 v 42.85 42.86 h 128.57 128.58 v 42.86 42.86 h -42.86 -42.86 v 42.85 42.86 h -42.86 -42.85 v -42.86 -42.85 h -42.86 -42.86 v 42.85 42.86 h -42.86 -42.85 v -42.86 -42.85 h 42.85 42.86 v -42.86 -42.86 h -42.86 -42.85 v -42.86 -42.85 h -42.86 -42.86 v 85.71 85.72 h -42.86 -42.85 v -42.86 -42.86 h -42.86 -42.86 v 257.15 257.14 h 42.86 42.86 v -42.86 -42.85 h 42.85 42.86 v -85.72 -85.71 h -42.86 -42.85 v -42.86 -42.86 h 42.85 42.86 v 42.86 42.86 h 171.43 171.43 v 42.85 42.86 h -42.86 -42.85 v 128.57 128.58 h -42.86 -42.86 v 42.85 42.86 h 85.72 85.71 v -85.71 -85.72 h 42.86 42.86 v 85.72 85.71 h -42.86 -42.86 v 42.86 42.86 h 42.86 42.86 v 85.71 85.72 h -42.86 -42.86 v 42.85 42.86 h 42.86 42.86 v 42.86 42.86 h -42.86 -42.86 v -42.86 -42.86 h -42.86 -42.85 v 42.86 42.86 h -42.86 -42.86 v -42.86 -42.86 h -42.86 -42.85 v 42.86 42.86 h -85.72 -85.71 z m 342.86,-171.43 v -128.57 h -85.72 v 85.71 h -42.86 -42.85 v 42.86 42.86 h 42.85 42.86 v 42.85 42.86 h 42.86 42.86 z m -600.01,-300 v -85.72 h 85.72 v -171.43 h -42.86 -42.86 v -42.86 -42.85 h 42.86 42.86 v -42.86 -42.86 h -42.86 -42.86 v 42.86 42.86 h -85.71 -85.72 v -42.86 -42.86 h -85.71 -85.717 v -42.86 -42.85 h 42.856 42.861 v -42.86 -42.86 h -42.861 -42.856 v 42.86 42.86 h -85.715 -85.714 v -42.86 -42.86 h 42.855 42.859 v -42.86 -42.85 h 42.856 42.859 v -42.86 -42.86 h -42.859 -42.856 v -42.86 -42.85 h 85.715 85.717 v 42.85 42.86 h 85.71 85.72 v -42.86 -42.85 h 42.85 42.86 v 42.85 42.86 h 85.72 85.71 v 42.86 42.86 h 42.86 42.86 v -42.86 -42.86 h 42.85 42.86 v -85.71 -85.72 h -42.86 -42.85 v 42.86 42.86 h -42.86 -42.86 v -42.86 -42.86 h -128.57 -128.57 v 42.86 42.86 h -42.86 -42.86 v -42.86 -42.86 h -42.86 -42.85 v -42.86 -42.85 h -42.861 -42.856 v 42.85 42.86 h -42.859 -42.856 v -42.86 -42.85 h -42.859 -42.855 v 42.85 42.86 h -42.86 -42.855 v -42.86 -42.85 h -85.715 -85.715 v 42.85 42.86 h 42.856 42.859 v 42.86 42.86 h 42.855 42.86 v 42.85 42.86 H 557.145 428.574 v -42.86 -42.85 h -42.859 -42.856 v 42.85 42.86 h 42.856 42.859 v 128.57 128.58 h 42.856 42.859 v 128.57 128.57 h 85.715 85.715 v -85.71 -85.72 h 85.715 85.714 v 42.86 42.86 h -42.859 -42.855 v 42.85 42.86 h 42.855 42.859 v -42.86 -42.85 h 128.571 128.571 v 42.85 42.86 h 85.72 85.71 v 85.72 85.71 h -42.86 -42.85 v 85.72 85.71 h 42.85 42.86 z m 342.86,-42.86 v -42.86 h -85.71 v 85.72 h 42.85 42.86 z m 171.43,-42.86 v -85.71 h -85.71 v 171.43 h 42.85 42.86 z m -600,-471.43 v -42.86 h 171.43 v -85.71 h -128.58 -128.57 v 85.71 85.72 h 42.86 42.86 z m 600,-257.15 v -128.57 h 85.72 v -85.71 h -42.86 -42.86 v 42.85 42.86 h -42.86 -42.85 v 128.57 128.58 h 42.85 42.86 z m 685.72,42.86 v -85.71 h -85.71 v -85.72 h 42.85 42.86 v -42.86 -42.85 h -42.86 -42.85 v -42.86 -42.86 h -42.86 -42.86 v -42.86 -42.85 h -85.71 -85.72 v 42.85 42.86 h 85.72 85.71 v 42.86 42.86 h 42.86 42.86 v 42.85 42.86 h -42.86 -42.86 v 85.72 85.71 h 42.86 42.86 v 42.86 42.86 h 42.85 42.86 z m -257.14,-171.43 v -85.71 h -257.15 v 85.71 h 42.86 42.86 v 42.86 42.86 h 85.71 85.72 z m -685.72,-128.57 v -42.86 h 85.71 v 85.72 h 42.86 42.86 v -42.86 -42.86 h 42.85 42.86 v -42.86 -42.85 h -42.86 -42.85 v -42.861 -42.856 h -42.86 -42.86 v 42.856 42.861 h -42.86 -42.85 v 42.85 42.86 h -42.86 -42.86 v -42.86 -42.85 h -42.86 -42.85 v 42.85 42.86 h -42.86 -42.86 v 42.86 42.86 h 128.57 128.58 z m -685.722,-85.72 v -42.85 h -85.714 v 85.71 h 42.855 42.859 z m 171.432,0 v -42.85 h -85.717 v 85.71 h 42.856 42.861 z m 942.86,0 v -42.85 h -85.71 v 85.71 h 42.85 42.86 z M 2314.3,814.289 v -128.57 h -257.14 v 257.144 h 128.57 128.57 z m -428.57,-85.715 v -42.855 h -85.72 v 85.715 h 42.86 42.86 z m 342.86,-214.285 v -85.715 h -171.43 v 85.715 h 42.85 42.86 v 42.856 42.859 h 42.86 42.86 v -85.715"
         style="fill:#000000;fill-opacity:1;fill-rule:nonzero;stroke:none"
         id="path18" /><path
         d="m 2142.87,2442.87 v -300 h 600.01 v 600.01 h -300.01 -300 z m 514.29,0 v -214.28 h -428.57 v 428.57 h 214.28 214.29 v -214.29"
         style="fill:#000000;fill-opacity:1;fill-rule:nonzero;stroke:none"
         id="path20" /><path
         d="m 2142.87,2014.3 v -42.86 h -85.71 v -171.43 h 42.85 42.86 v 85.72 85.71 h 42.86 42.86 v -42.86 -42.85 h 85.71 85.72 v 42.85 42.86 h -85.72 -85.71 v 42.86 42.86 h -42.86 -42.86 v -42.86"
         style="fill:#000000;fill-opacity:1;fill-rule:nonzero;stroke:none"
         id="path22" /><path
         d="m 257.145,557.145 v -300 h 600.003 v 600.003 h -300.003 -300 z m 514.289,0 V 342.859 H 342.859 V 771.434 H 557.145 771.434 V 557.145"
         style="fill:#000000;fill-opacity:1;fill-rule:nonzero;stroke:none"
         id="path24" /><path
         d="m 1285.72,814.289 v -42.855 h 85.72 v 85.714 h -42.86 -42.86 v -42.859"
         style="fill:#000000;fill-opacity:1;fill-rule:nonzero;stroke:none"
         id="path26" /><path
         d="m 942.863,600.004 v -85.715 h 85.717 v -85.715 h -42.861 -42.856 v -85.715 -85.714 h 42.856 42.861 V 300 342.859 h 42.85 42.86 v 42.856 42.859 h 42.86 42.86 v 42.856 42.859 h -85.72 -85.71 v 42.856 42.859 h 42.85 42.86 v 42.855 42.86 h -85.71 -85.717 v -85.715"
         style="fill:#000000;fill-opacity:1;fill-rule:nonzero;stroke:none"
         id="path28" /><path
         d="m 1800.01,471.43 v -42.856 h 85.72 v 85.715 h -42.86 -42.86 V 471.43"
         style="fill:#000000;fill-opacity:1;fill-rule:nonzero;stroke:none"
         id="path30" /><path
         d="M 428.574,2442.87 V 2314.3 h 257.145 v 257.15 H 557.145 428.574 v -128.58"
         style="fill:#000000;fill-opacity:1;fill-rule:nonzero;stroke:none"
         id="path32" /><path
         d="m 771.434,1500.01 v -42.86 h 85.714 v 85.72 h -42.859 -42.855 v -42.86"
         style="fill:#000000;fill-opacity:1;fill-rule:nonzero;stroke:none"
         id="path34" /><path
         d="m 771.434,1328.58 v -42.86 h 85.714 v 85.72 h -42.859 -42.855 v -42.86"
         style="fill:#000000;fill-opacity:1;fill-rule:nonzero;stroke:none"
         id="path36" /><path
         d="m 2142.87,814.289 v -42.855 h 85.72 v 85.714 h -42.86 -42.86 v -42.859"
         style="fill:#000000;fill-opacity:1;fill-rule:nonzero;stroke:none"
         id="path38" /><path
         d="M 2314.3,2442.87 V 2314.3 h 257.15 v 257.15 H 2442.87 2314.3 v -128.58"
         style="fill:#000000;fill-opacity:1;fill-rule:nonzero;stroke:none"
         id="path40" /><path
         d="M 428.574,557.145 V 428.574 H 685.719 V 685.719 H 557.145 428.574 V 557.145"
         style="fill:#000000;fill-opacity:1;fill-rule:nonzero;stroke:none"
         id="path42" /></g></g></svg>
